<?xml version="1.0" encoding="utf-8"?>
<svg id="master-artboard" viewBox="0 0 500 500" version="1.1" xmlns="http://www.w3.org/2000/svg" x="0px" y="0px" style="enable-background:new 0 0 1400 980;" width="500px" height="500px"><defs><style id="ee-google-fonts">@import url(https://fonts.googleapis.com/css?family=Aclonica:400);</style></defs><rect id="ee-background" x="0" y="0" width="500" height="500" style="fill: white; fill-opacity: 0; pointer-events: none;"/><path d="M 237.84947204589844 229 L 225.72947692871094 229 L 225.72947692871094 212.1199951171875 L 237.84947204589844 212.1199951171875 L 237.84947204589844 214.27999877929688 L 230.3794708251953 214.27999877929688 L 230.3794708251953 219.5 L 236.14947509765625 219.5 L 236.14947509765625 221.63999938964844 L 230.3794708251953 221.63999938964844 L 230.3794708251953 226.83999633789062 L 237.84947204589844 226.83999633789062 L 237.84947204589844 229 ZM 247.80755615234375 221.6300048828125 L 239.92755126953125 221.6300048828125 L 239.92755126953125 219.47000122070312 L 247.80755615234375 219.47000122070312 L 247.80755615234375 221.6300048828125 ZM 266.6970520019531 216.30999755859375 L 264.6870422363281 217.14999389648438 C 264.5337219238281 216.64334106445312 264.3270568847656 216.17999267578125 264.0670471191406 215.75999450683594 C 263.8003845214844 215.3333282470703 263.487060546875 214.97000122070312 263.1270446777344 214.6699981689453 C 262.7670593261719 214.3699951171875 262.35369873046875 214.1366729736328 261.8870544433594 213.97000122070312 C 261.4270324707031 213.80332946777344 260.9237060546875 213.72000122070312 260.3770446777344 213.72000122070312 C 259.7903747558594 213.72000122070312 259.25372314453125 213.81666564941406 258.7670593261719 214.00999450683594 C 258.2803955078125 214.19667053222656 257.8437194824219 214.4600067138672 257.45703125 214.8000030517578 C 257.07037353515625 215.13333129882812 256.7303771972656 215.52333068847656 256.4370422363281 215.97000122070312 C 256.150390625 216.4166717529297 255.91038513183594 216.88999938964844 255.717041015625 217.38999938964844 C 255.5170440673828 217.89666748046875 255.37037658691406 218.4199981689453 255.2770538330078 218.9600067138672 C 255.1837158203125 219.5 255.1370391845703 220.02667236328125 255.1370391845703 220.5399932861328 C 255.1370391845703 221.36000061035156 255.2337188720703 222.17666625976562 255.4270477294922 222.99000549316406 C 255.62037658691406 223.80332946777344 255.9237060546875 224.53334045410156 256.3370361328125 225.17999267578125 C 256.7570495605469 225.82666015625 257.3003845214844 226.35333251953125 257.967041015625 226.75999450683594 C 258.6270446777344 227.16000366210938 259.4303894042969 227.36000061035156 260.3770446777344 227.36000061035156 C 260.8770446777344 227.36000061035156 261.3503723144531 227.27667236328125 261.79705810546875 227.11000061035156 C 262.24371337890625 226.94332885742188 262.64703369140625 226.7133331298828 263.0070495605469 226.4199981689453 C 263.37371826171875 226.1266632080078 263.6937255859375 225.77999877929688 263.967041015625 225.3800048828125 C 264.2403869628906 224.97999572753906 264.45703125 224.5500030517578 264.6170349121094 224.08999633789062 L 266.64703369140625 224.89999389648438 C 266.35369873046875 225.63999938964844 265.9470520019531 226.2899932861328 265.4270324707031 226.85000610351562 C 264.9137268066406 227.41000366210938 264.3270568847656 227.8733367919922 263.66705322265625 228.24000549316406 C 263.0070495605469 228.60667419433594 262.3003845214844 228.8800048828125 261.54705810546875 229.05999755859375 C 260.793701171875 229.24667358398438 260.0337219238281 229.33999633789062 259.2670593261719 229.33999633789062 C 258.44036865234375 229.33999633789062 257.6437072753906 229.24000549316406 256.8770446777344 229.0399932861328 C 256.1170349121094 228.8333282470703 255.41038513183594 228.5433349609375 254.75704956054688 228.1699981689453 C 254.0970458984375 227.79666137695312 253.50038146972656 227.3433380126953 252.967041015625 226.80999755859375 C 252.4337158203125 226.27667236328125 251.97705078125 225.68666076660156 251.5970458984375 225.0399932861328 C 251.217041015625 224.39334106445312 250.9237060546875 223.68666076660156 250.717041015625 222.9199981689453 C 250.5103759765625 222.16000366210938 250.40704345703125 221.36666870117188 250.40704345703125 220.5399932861328 C 250.40704345703125 219.7133331298828 250.5103759765625 218.9166717529297 250.717041015625 218.14999389648438 C 250.9237060546875 217.38999938964844 251.217041015625 216.68333435058594 251.5970458984375 216.02999877929688 C 251.97705078125 215.3766632080078 252.4337158203125 214.7866668701172 252.967041015625 214.25999450683594 C 253.50038146972656 213.72666931152344 254.0970458984375 213.27333068847656 254.75704956054688 212.89999389648438 C 255.41038513183594 212.52667236328125 256.1170349121094 212.23666381835938 256.8770446777344 212.02999877929688 C 257.6437072753906 211.8300018310547 258.44036865234375 211.72999572753906 259.2670593261719 211.72999572753906 C 260.0603942871094 211.72999572753906 260.84039306640625 211.82333374023438 261.6070556640625 212.00999450683594 C 262.3670349121094 212.19667053222656 263.0736999511719 212.47999572753906 263.72705078125 212.86000061035156 C 264.3870544433594 213.24000549316406 264.9737243652344 213.71665954589844 265.487060546875 214.2899932861328 C 265.99371337890625 214.8633270263672 266.39703369140625 215.5366668701172 266.6970520019531 216.30999755859375 ZM 283.44989013671875 222.1999969482422 C 283.44989013671875 222.9066619873047 283.3565368652344 223.56666564941406 283.1698913574219 224.17999267578125 C 282.98321533203125 224.8000030517578 282.72320556640625 225.3699951171875 282.389892578125 225.88999938964844 C 282.0565490722656 226.4166717529297 281.65655517578125 226.88999938964844 281.18988037109375 227.30999755859375 C 280.716552734375 227.72332763671875 280.2032165527344 228.07666015625 279.6498718261719 228.3699951171875 C 279.0898742675781 228.6566619873047 278.4898681640625 228.8800048828125 277.8498840332031 229.0399932861328 C 277.216552734375 229.19332885742188 276.5632019042969 229.27000427246094 275.889892578125 229.27000427246094 C 275.216552734375 229.27000427246094 274.5632019042969 229.19332885742188 273.92987060546875 229.0399932861328 C 273.2965393066406 228.8800048828125 272.7032165527344 228.6566619873047 272.1498718261719 228.3699951171875 C 271.5898742675781 228.07666015625 271.0765380859375 227.72332763671875 270.60986328125 227.30999755859375 C 270.13653564453125 226.88999938964844 269.73321533203125 226.4166717529297 269.3998718261719 225.88999938964844 C 269.0732116699219 225.3699951171875 268.8165588378906 224.8000030517578 268.6298828125 224.17999267578125 C 268.4365539550781 223.55999755859375 268.3398742675781 222.89999389648438 268.3398742675781 222.1999969482422 C 268.3398742675781 221.5066680908203 268.4365539550781 220.85000610351562 268.6298828125 220.22999572753906 C 268.8165588378906 219.61000061035156 269.0732116699219 219.0366668701172 269.3998718261719 218.50999450683594 C 269.73321533203125 217.99000549316406 270.13653564453125 217.52000427246094 270.60986328125 217.10000610351562 C 271.0765380859375 216.67999267578125 271.5898742675781 216.32666015625 272.1498718261719 216.0399932861328 C 272.7032165527344 215.75332641601562 273.2965393066406 215.52999877929688 273.92987060546875 215.3699951171875 C 274.5632019042969 215.21665954589844 275.216552734375 215.13999938964844 275.889892578125 215.13999938964844 C 276.5632019042969 215.13999938964844 277.216552734375 215.21665954589844 277.8498840332031 215.3699951171875 C 278.4898681640625 215.52999877929688 279.0898742675781 215.75332641601562 279.6498718261719 216.0399932861328 C 280.2032165527344 216.32666015625 280.716552734375 216.67999267578125 281.18988037109375 217.10000610351562 C 281.65655517578125 217.52000427246094 282.0565490722656 217.99000549316406 282.389892578125 218.50999450683594 C 282.72320556640625 219.0366668701172 282.98321533203125 219.61000061035156 283.1698913574219 220.22999572753906 C 283.3565368652344 220.85000610351562 283.44989013671875 221.5066680908203 283.44989013671875 222.1999969482422 M 279.4198913574219 222.1999969482422 C 279.4198913574219 221.82666015625 279.39654541015625 221.42999267578125 279.3498840332031 221.00999450683594 C 279.30987548828125 220.59666442871094 279.2398681640625 220.18666076660156 279.139892578125 219.77999877929688 C 279.033203125 219.3800048828125 278.8932189941406 218.9933319091797 278.7198791503906 218.6199951171875 C 278.5465393066406 218.25332641601562 278.3298645019531 217.92999267578125 278.06988525390625 217.64999389648438 C 277.80987548828125 217.3699951171875 277.4998779296875 217.14666748046875 277.139892578125 216.97999572753906 C 276.78656005859375 216.81333923339844 276.369873046875 216.72999572753906 275.889892578125 216.72999572753906 C 275.4365539550781 216.72999572753906 275.033203125 216.81666564941406 274.67987060546875 216.99000549316406 C 274.3332214355469 217.163330078125 274.02655029296875 217.38999938964844 273.7598876953125 217.6699981689453 C 273.4998779296875 217.9566650390625 273.283203125 218.2866668701172 273.10986328125 218.66000366210938 C 272.92987060546875 219.0399932861328 272.78656005859375 219.42999267578125 272.67987060546875 219.8300018310547 C 272.5732116699219 220.22999572753906 272.4965515136719 220.6366729736328 272.44989013671875 221.0500030517578 C 272.4031982421875 221.4566650390625 272.3798828125 221.83999633789062 272.3798828125 222.1999969482422 C 272.3798828125 222.55999755859375 272.4031982421875 222.94667053222656 272.44989013671875 223.36000061035156 C 272.4965515136719 223.76666259765625 272.5732116699219 224.17333984375 272.67987060546875 224.5800018310547 C 272.78656005859375 224.98666381835938 272.92987060546875 225.3766632080078 273.10986328125 225.75 C 273.283203125 226.11666870117188 273.4998779296875 226.44332885742188 273.7598876953125 226.72999572753906 C 274.02655029296875 227.01666259765625 274.3332214355469 227.24667358398438 274.67987060546875 227.4199981689453 C 275.033203125 227.5933380126953 275.4365539550781 227.67999267578125 275.889892578125 227.67999267578125 C 276.3565368652344 227.67999267578125 276.7698669433594 227.5933380126953 277.1298828125 227.4199981689453 C 277.4898681640625 227.25332641601562 277.79986572265625 227.02999877929688 278.05987548828125 226.75 C 278.3265380859375 226.47000122070312 278.543212890625 226.14666748046875 278.7098693847656 225.77999877929688 C 278.8832092285156 225.413330078125 279.0232238769531 225.02667236328125 279.1298828125 224.6199951171875 C 279.2365417480469 224.2133331298828 279.30987548828125 223.80332946777344 279.3498840332031 223.38999938964844 C 279.39654541015625 222.97666931152344 279.4198913574219 222.5800018310547 279.4198913574219 222.1999969482422 ZM 306.8825378417969 221.10000610351562 C 306.8825378417969 222.03334045410156 306.77587890625 223.00332641601562 306.5625305175781 224.00999450683594 C 306.342529296875 225.01666259765625 306.035888671875 226 305.6425476074219 226.9600067138672 C 305.2425537109375 227.913330078125 304.765869140625 228.81666564941406 304.2125549316406 229.6699981689453 C 303.6592102050781 230.52333068847656 303.04254150390625 231.25999450683594 302.362548828125 231.8800048828125 L 300.8725280761719 231.07000732421875 C 301.0992126464844 230.663330078125 301.3058776855469 230.2066650390625 301.4925537109375 229.6999969482422 C 301.67919921875 229.19332885742188 301.8525390625 228.66000366210938 302.0125427246094 228.10000610351562 C 302.1658630371094 227.53334045410156 302.30255126953125 226.95333862304688 302.42254638671875 226.36000061035156 C 302.535888671875 225.76666259765625 302.6358642578125 225.17666625976562 302.7225341796875 224.58999633789062 C 302.80255126953125 223.99667358398438 302.862548828125 223.42333984375 302.90252685546875 222.8699951171875 C 302.9425354003906 222.31666564941406 302.9625549316406 221.79666137695312 302.9625549316406 221.30999755859375 C 302.9625549316406 221.0366668701172 302.9525451660156 220.74000549316406 302.93255615234375 220.4199981689453 C 302.9192199707031 220.10000610351562 302.8858642578125 219.77999877929688 302.8325500488281 219.4600067138672 C 302.785888671875 219.13999938964844 302.7125549316406 218.8333282470703 302.612548828125 218.5399932861328 C 302.505859375 218.24667358398438 302.3658752441406 217.98666381835938 302.1925354003906 217.75999450683594 C 302.0191955566406 217.52667236328125 301.7991943359375 217.3433380126953 301.53253173828125 217.2100067138672 C 301.2725524902344 217.07000732421875 300.9591979980469 217 300.592529296875 217 C 300.2325439453125 217 299.9258728027344 217.09666442871094 299.67254638671875 217.2899932861328 C 299.4192199707031 217.47666931152344 299.2025451660156 217.72332763671875 299.0225524902344 218.02999877929688 C 298.842529296875 218.336669921875 298.69921875 218.67999267578125 298.592529296875 219.05999755859375 C 298.4858703613281 219.44667053222656 298.4058837890625 219.8333282470703 298.3525390625 220.22000122070312 C 298.2991943359375 220.60665893554688 298.2625427246094 220.97332763671875 298.2425537109375 221.32000732421875 C 298.2225341796875 221.67333984375 298.2125549316406 221.97000122070312 298.2125549316406 222.2100067138672 L 298.2125549316406 229 L 294.2625427246094 229 L 294.2625427246094 222.6999969482422 C 294.2625427246094 222.42666625976562 294.265869140625 222.09666442871094 294.2725524902344 221.7100067138672 C 294.285888671875 221.31666564941406 294.2792053222656 220.91000366210938 294.2525329589844 220.49000549316406 C 294.2192077636719 220.07000732421875 294.1658630371094 219.64999389648438 294.092529296875 219.22999572753906 C 294.0191955566406 218.81666564941406 293.90252685546875 218.44332885742188 293.7425537109375 218.11000061035156 C 293.5825500488281 217.78334045410156 293.3658752441406 217.51666259765625 293.092529296875 217.30999755859375 C 292.8192138671875 217.10333251953125 292.4758605957031 217 292.0625305175781 217 C 291.7091979980469 217 291.41253662109375 217.09666442871094 291.17254638671875 217.2899932861328 C 290.939208984375 217.49000549316406 290.7425537109375 217.7433319091797 290.5825500488281 218.0500030517578 C 290.42254638671875 218.35665893554688 290.2958679199219 218.70333862304688 290.2025451660156 219.08999633789062 C 290.1158752441406 219.47666931152344 290.0491943359375 219.8633270263672 290.0025329589844 220.25 C 289.9625549316406 220.6366729736328 289.939208984375 221.00332641601562 289.93255615234375 221.35000610351562 C 289.9258728027344 221.69667053222656 289.92254638671875 221.98333740234375 289.92254638671875 222.2100067138672 L 289.92254638671875 229 L 285.9425354003906 229 L 285.9425354003906 215.4600067138672 L 287.4725341796875 215.4600067138672 L 288.92254638671875 218.6199951171875 C 289.24920654296875 217.52667236328125 289.765869140625 216.67333984375 290.4725341796875 216.05999755859375 C 291.17919921875 215.44667053222656 292.11920166015625 215.13999938964844 293.29254150390625 215.13999938964844 C 294.34588623046875 215.13999938964844 295.2225341796875 215.35665893554688 295.92254638671875 215.7899932861328 C 296.6158752441406 216.22999572753906 297.16253662109375 216.94332885742188 297.5625305175781 217.92999267578125 C 297.7892150878906 217.49667358398438 298.0392150878906 217.11000061035156 298.3125305175781 216.77000427246094 C 298.592529296875 216.42333984375 298.90252685546875 216.1300048828125 299.2425537109375 215.88999938964844 C 299.5825500488281 215.64334106445312 299.9591979980469 215.4566650390625 300.3725280761719 215.3300018310547 C 300.785888671875 215.20333862304688 301.2425537109375 215.13999938964844 301.7425537109375 215.13999938964844 C 302.66253662109375 215.13999938964844 303.44921875 215.2899932861328 304.1025390625 215.58999633789062 C 304.755859375 215.88999938964844 305.2892150878906 216.30667114257812 305.7025451660156 216.83999633789062 C 306.1158752441406 217.36666870117188 306.4158630371094 217.99667358398438 306.6025390625 218.72999572753906 C 306.7892150878906 219.4566650390625 306.8825378417969 220.24667358398438 306.8825378417969 221.10000610351562 ZM 330.4619445800781 221.10000610351562 C 330.4619445800781 222.03334045410156 330.35528564453125 223.00332641601562 330.1419372558594 224.00999450683594 C 329.92193603515625 225.01666259765625 329.61529541015625 226 329.2219543457031 226.9600067138672 C 328.82196044921875 227.913330078125 328.34527587890625 228.81666564941406 327.7919616699219 229.6699981689453 C 327.2386169433594 230.52333068847656 326.6219482421875 231.25999450683594 325.94195556640625 231.8800048828125 L 324.4519348144531 231.07000732421875 C 324.6786193847656 230.663330078125 324.8852844238281 230.2066650390625 325.07196044921875 229.6999969482422 C 325.25860595703125 229.19332885742188 325.43194580078125 228.66000366210938 325.5919494628906 228.10000610351562 C 325.7452697753906 227.53334045410156 325.8819580078125 226.95333862304688 326.001953125 226.36000061035156 C 326.11529541015625 225.76666259765625 326.21527099609375 225.17666625976562 326.30194091796875 224.58999633789062 C 326.3819580078125 223.99667358398438 326.44195556640625 223.42333984375 326.48193359375 222.8699951171875 C 326.5219421386719 222.31666564941406 326.5419616699219 221.79666137695312 326.5419616699219 221.30999755859375 C 326.5419616699219 221.0366668701172 326.5319519042969 220.74000549316406 326.511962890625 220.4199981689453 C 326.4986267089844 220.10000610351562 326.46527099609375 219.77999877929688 326.4119567871094 219.4600067138672 C 326.36529541015625 219.13999938964844 326.2919616699219 218.8333282470703 326.19195556640625 218.5399932861328 C 326.08526611328125 218.24667358398438 325.9452819824219 217.98666381835938 325.7719421386719 217.75999450683594 C 325.5986022949219 217.52667236328125 325.37860107421875 217.3433380126953 325.1119384765625 217.2100067138672 C 324.8519592285156 217.07000732421875 324.5386047363281 217 324.17193603515625 217 C 323.81195068359375 217 323.5052795410156 217.09666442871094 323.251953125 217.2899932861328 C 322.9986267089844 217.47666931152344 322.7819519042969 217.72332763671875 322.6019592285156 218.02999877929688 C 322.42193603515625 218.336669921875 322.27862548828125 218.67999267578125 322.17193603515625 219.05999755859375 C 322.0652770996094 219.44667053222656 321.98529052734375 219.8333282470703 321.93194580078125 220.22000122070312 C 321.87860107421875 220.60665893554688 321.8419494628906 220.97332763671875 321.82196044921875 221.32000732421875 C 321.80194091796875 221.67333984375 321.7919616699219 221.97000122070312 321.7919616699219 222.2100067138672 L 321.7919616699219 229 L 317.8419494628906 229 L 317.8419494628906 222.6999969482422 C 317.8419494628906 222.42666625976562 317.84527587890625 222.09666442871094 317.8519592285156 221.7100067138672 C 317.86529541015625 221.31666564941406 317.8586120605469 220.91000366210938 317.8319396972656 220.49000549316406 C 317.7986145019531 220.07000732421875 317.7452697753906 219.64999389648438 317.67193603515625 219.22999572753906 C 317.5986022949219 218.81666564941406 317.48193359375 218.44332885742188 317.32196044921875 218.11000061035156 C 317.1619567871094 217.78334045410156 316.9452819824219 217.51666259765625 316.67193603515625 217.30999755859375 C 316.39862060546875 217.10333251953125 316.0552673339844 217 315.6419372558594 217 C 315.2886047363281 217 314.991943359375 217.09666442871094 314.751953125 217.2899932861328 C 314.51861572265625 217.49000549316406 314.32196044921875 217.7433319091797 314.1619567871094 218.0500030517578 C 314.001953125 218.35665893554688 313.8752746582031 218.70333862304688 313.7819519042969 219.08999633789062 C 313.6952819824219 219.47666931152344 313.62860107421875 219.8633270263672 313.5819396972656 220.25 C 313.5419616699219 220.6366729736328 313.51861572265625 221.00332641601562 313.511962890625 221.35000610351562 C 313.5052795410156 221.69667053222656 313.501953125 221.98333740234375 313.501953125 222.2100067138672 L 313.501953125 229 L 309.5219421386719 229 L 309.5219421386719 215.4600067138672 L 311.05194091796875 215.4600067138672 L 312.501953125 218.6199951171875 C 312.82861328125 217.52667236328125 313.34527587890625 216.67333984375 314.05194091796875 216.05999755859375 C 314.75860595703125 215.44667053222656 315.6986083984375 215.13999938964844 316.8719482421875 215.13999938964844 C 317.92529296875 215.13999938964844 318.80194091796875 215.35665893554688 319.501953125 215.7899932861328 C 320.1952819824219 216.22999572753906 320.741943359375 216.94332885742188 321.1419372558594 217.92999267578125 C 321.3686218261719 217.49667358398438 321.6186218261719 217.11000061035156 321.8919372558594 216.77000427246094 C 322.17193603515625 216.42333984375 322.48193359375 216.1300048828125 322.82196044921875 215.88999938964844 C 323.1619567871094 215.64334106445312 323.5386047363281 215.4566650390625 323.9519348144531 215.3300018310547 C 324.36529541015625 215.20333862304688 324.82196044921875 215.13999938964844 325.32196044921875 215.13999938964844 C 326.241943359375 215.13999938964844 327.02862548828125 215.2899932861328 327.68194580078125 215.58999633789062 C 328.33526611328125 215.88999938964844 328.8686218261719 216.30667114257812 329.2819519042969 216.83999633789062 C 329.6952819824219 217.36666870117188 329.9952697753906 217.99667358398438 330.18194580078125 218.72999572753906 C 330.3686218261719 219.4566650390625 330.4619445800781 220.24667358398438 330.4619445800781 221.10000610351562 ZM 336.3571472167969 222.5800018310547 C 336.84381103515625 222.68666076660156 337.3271484375 222.77333068847656 337.80712890625 222.83999633789062 C 338.2938232421875 222.89999389648438 338.7838134765625 222.92999267578125 339.2771301269531 222.92999267578125 C 339.79046630859375 222.92999267578125 340.26715087890625 222.8800048828125 340.7071533203125 222.77999877929688 C 341.15380859375 222.68666076660156 341.5371398925781 222.52333068847656 341.8571472167969 222.2899932861328 C 342.1838073730469 222.06333923339844 342.44049072265625 221.7566680908203 342.62713623046875 221.3699951171875 C 342.8138122558594 220.99000549316406 342.9071350097656 220.51333618164062 342.9071350097656 219.94000244140625 C 342.9071350097656 219.47999572753906 342.84381103515625 219.05999755859375 342.7171325683594 218.67999267578125 C 342.5971374511719 218.2933349609375 342.413818359375 217.9633331298828 342.1671447753906 217.69000244140625 C 341.92047119140625 217.4166717529297 341.6171569824219 217.20333862304688 341.25714111328125 217.0500030517578 C 340.89715576171875 216.89666748046875 340.4771423339844 216.82000732421875 339.99713134765625 216.82000732421875 C 339.55712890625 216.82000732421875 339.1571350097656 216.90333557128906 338.7971496582031 217.07000732421875 C 338.4438171386719 217.23666381835938 338.1338195800781 217.4566650390625 337.8671569824219 217.72999572753906 C 337.59381103515625 218.00999450683594 337.3604736328125 218.3333282470703 337.1671447753906 218.6999969482422 C 336.98046875 219.06666564941406 336.8238220214844 219.4499969482422 336.6971435546875 219.85000610351562 C 336.5704650878906 220.25 336.48046875 220.64999389648438 336.4271545410156 221.0500030517578 C 336.3738098144531 221.4566650390625 336.3471374511719 221.83999633789062 336.3471374511719 222.1999969482422 C 336.3471374511719 222.26666259765625 336.3471374511719 222.3300018310547 336.3471374511719 222.38999938964844 C 336.3471374511719 222.4499969482422 336.3504638671875 222.51333618164062 336.3571472167969 222.5800018310547 M 346.1171569824219 219.91000366210938 C 346.1171569824219 220.4633331298828 346.0271301269531 220.9566650390625 345.8471374511719 221.38999938964844 C 345.6671447753906 221.82333374023438 345.4237976074219 222.20333862304688 345.1171569824219 222.52999877929688 C 344.81048583984375 222.85665893554688 344.45379638671875 223.13333129882812 344.0471496582031 223.36000061035156 C 343.6404724121094 223.586669921875 343.2071533203125 223.77333068847656 342.74713134765625 223.9199981689453 C 342.2871398925781 224.06666564941406 341.81048583984375 224.1699981689453 341.317138671875 224.22999572753906 C 340.8304748535156 224.2899932861328 340.3571472167969 224.32000732421875 339.89715576171875 224.32000732421875 C 339.31048583984375 224.32000732421875 338.73046875 224.27999877929688 338.1571350097656 224.1999969482422 C 337.5904846191406 224.1199951171875 337.0304870605469 223.99000549316406 336.4771423339844 223.80999755859375 C 336.5638122558594 224.32333374023438 336.7004699707031 224.81333923339844 336.88714599609375 225.27999877929688 C 337.0738220214844 225.74667358398438 337.3238220214844 226.15333557128906 337.63714599609375 226.5 C 337.9504699707031 226.84666442871094 338.33380126953125 227.1199951171875 338.7871398925781 227.32000732421875 C 339.24713134765625 227.52667236328125 339.7871398925781 227.6300048828125 340.4071350097656 227.6300048828125 C 340.8271484375 227.6300048828125 341.22381591796875 227.56666564941406 341.5971374511719 227.44000244140625 C 341.9704895019531 227.31333923339844 342.3138122558594 227.1366729736328 342.62713623046875 226.91000366210938 C 342.94049072265625 226.68333435058594 343.2171325683594 226.4166717529297 343.4571533203125 226.11000061035156 C 343.69049072265625 225.79666137695312 343.8838195800781 225.44667053222656 344.0371398925781 225.05999755859375 L 345.74713134765625 225.6999969482422 C 345.4871520996094 226.31333923339844 345.1338195800781 226.8433380126953 344.6871337890625 227.2899932861328 C 344.23382568359375 227.7433319091797 343.72381591796875 228.11666870117188 343.1571350097656 228.41000366210938 C 342.5904846191406 228.70333862304688 341.990478515625 228.9199981689453 341.3571472167969 229.05999755859375 C 340.7171325683594 229.1999969482422 340.087158203125 229.27000427246094 339.4671325683594 229.27000427246094 C 338.4338073730469 229.27000427246094 337.48046875 229.09666442871094 336.6071472167969 228.75 C 335.7271423339844 228.40333557128906 334.9704895019531 227.9166717529297 334.337158203125 227.2899932861328 C 333.7104797363281 226.663330078125 333.2171325683594 225.9166717529297 332.8571472167969 225.0500030517578 C 332.49713134765625 224.18333435058594 332.317138671875 223.23333740234375 332.317138671875 222.1999969482422 C 332.317138671875 221.17333984375 332.49713134765625 220.22666931152344 332.8571472167969 219.36000061035156 C 333.2171325683594 218.48666381835938 333.7104797363281 217.74000549316406 334.337158203125 217.1199951171875 C 334.9704895019531 216.4933319091797 335.7271423339844 216.0066680908203 336.6071472167969 215.66000366210938 C 337.48046875 215.31333923339844 338.4338073730469 215.13999938964844 339.4671325683594 215.13999938964844 C 339.9671325683594 215.13999938964844 340.4771423339844 215.17333984375 340.99713134765625 215.24000549316406 C 341.5238037109375 215.31333923339844 342.0304870605469 215.42666625976562 342.51715087890625 215.5800018310547 C 343.0104675292969 215.72666931152344 343.4771423339844 215.92333984375 343.9171447753906 216.1699981689453 C 344.3571472167969 216.41000366210938 344.7371520996094 216.7066650390625 345.05712890625 217.05999755859375 C 345.3838195800781 217.4199981689453 345.6404724121094 217.8333282470703 345.8271484375 218.3000030517578 C 346.0204772949219 218.76666259765625 346.1171569824219 219.30332946777344 346.1171569824219 219.91000366210938 ZM 360.0985412597656 216.66000366210938 L 357.8685302734375 220.35000610351562 C 357.77520751953125 220.0366668701172 357.65521240234375 219.68666076660156 357.508544921875 219.3000030517578 C 357.36187744140625 218.9066619873047 357.17852783203125 218.5399932861328 356.9585266113281 218.1999969482422 C 356.738525390625 217.86000061035156 356.4752197265625 217.57666015625 356.1685485839844 217.35000610351562 C 355.8685302734375 217.11666870117188 355.5185241699219 217 355.1185302734375 217 C 354.7518615722656 217 354.431884765625 217.0933380126953 354.1585388183594 217.27999877929688 C 353.8918762207031 217.46665954589844 353.6651916503906 217.7100067138672 353.4785461425781 218.00999450683594 C 353.2918701171875 218.30999755859375 353.1385498046875 218.64999389648438 353.0185241699219 219.02999877929688 C 352.8918762207031 219.41000366210938 352.7951965332031 219.7933349609375 352.7285461425781 220.17999267578125 C 352.6685485839844 220.56666564941406 352.6252136230469 220.93666076660156 352.5985412597656 221.2899932861328 C 352.57855224609375 221.64999389648438 352.56854248046875 221.9566650390625 352.56854248046875 222.2100067138672 L 352.56854248046875 229 L 348.5885314941406 229 L 348.5885314941406 215.4600067138672 L 350.1185302734375 215.4600067138672 L 351.7185363769531 218.6199951171875 C 351.93853759765625 218.1133270263672 352.18853759765625 217.64666748046875 352.4685363769531 217.22000122070312 C 352.74853515625 216.7933349609375 353.0718688964844 216.42666625976562 353.43853759765625 216.1199951171875 C 353.8052062988281 215.80667114257812 354.22186279296875 215.56333923339844 354.68853759765625 215.38999938964844 C 355.15521240234375 215.22332763671875 355.681884765625 215.13999938964844 356.2685241699219 215.13999938964844 C 356.5751953125 215.13999938964844 356.9151916503906 215.163330078125 357.2885437011719 215.2100067138672 C 357.661865234375 215.26333618164062 358.0285339355469 215.35000610351562 358.3885498046875 215.47000122070312 C 358.74853515625 215.58999633789062 359.0818786621094 215.75 359.3885498046875 215.9499969482422 C 359.68853759765625 216.14334106445312 359.9252014160156 216.3800048828125 360.0985412597656 216.66000366210938 ZM 373.88671875 218.82000732421875 L 372.17669677734375 219.5 C 371.90338134765625 218.63999938964844 371.44671630859375 217.97999572753906 370.80670166015625 217.52000427246094 C 370.1667175292969 217.05332946777344 369.3966979980469 216.82000732421875 368.4967041015625 216.82000732421875 C 368.0166931152344 216.82000732421875 367.5867004394531 216.89666748046875 367.2066955566406 217.0500030517578 C 366.8266906738281 217.20333862304688 366.4933776855469 217.413330078125 366.2066955566406 217.67999267578125 C 365.92669677734375 217.94667053222656 365.68670654296875 218.2566680908203 365.4866943359375 218.61000061035156 C 365.2867126464844 218.9566650390625 365.1233825683594 219.3300018310547 364.9967041015625 219.72999572753906 C 364.8700256347656 220.1300048828125 364.780029296875 220.5433349609375 364.7267150878906 220.97000122070312 C 364.6733703613281 221.39666748046875 364.6466979980469 221.80667114257812 364.6466979980469 222.1999969482422 C 364.6466979980469 222.63333129882812 364.6700439453125 223.06666564941406 364.7167053222656 223.5 C 364.76336669921875 223.94000244140625 364.8433837890625 224.36000061035156 364.9566955566406 224.75999450683594 C 365.0700378417969 225.1666717529297 365.22003173828125 225.5433349609375 365.4067077636719 225.88999938964844 C 365.5933837890625 226.23666381835938 365.8300476074219 226.5399932861328 366.11669921875 226.8000030517578 C 366.40338134765625 227.05332946777344 366.7433776855469 227.2566680908203 367.13671875 227.41000366210938 C 367.530029296875 227.55667114257812 367.9833679199219 227.6300048828125 368.4967041015625 227.6300048828125 C 368.9167175292969 227.6300048828125 369.3133850097656 227.56666564941406 369.68670654296875 227.44000244140625 C 370.0600280761719 227.31333923339844 370.40338134765625 227.1366729736328 370.7167053222656 226.91000366210938 C 371.030029296875 226.68333435058594 371.30670166015625 226.4166717529297 371.54669189453125 226.11000061035156 C 371.7867126464844 225.79666137695312 371.98004150390625 225.44667053222656 372.126708984375 225.05999755859375 L 373.8467102050781 225.6999969482422 C 373.5867004394531 226.31333923339844 373.2433776855469 226.8433380126953 372.81671142578125 227.2899932861328 C 372.3900451660156 227.7433319091797 371.9100341796875 228.11666870117188 371.376708984375 228.41000366210938 C 370.8367004394531 228.70333862304688 370.2567138671875 228.9199981689453 369.63671875 229.05999755859375 C 369.0166931152344 229.1999969482422 368.39337158203125 229.27000427246094 367.7666931152344 229.27000427246094 C 366.74005126953125 229.27000427246094 365.7900390625 229.09666442871094 364.9167175292969 228.75 C 364.0433654785156 228.40333557128906 363.2867126464844 227.913330078125 362.6466979980469 227.27999877929688 C 362.01336669921875 226.65333557128906 361.5166931152344 225.9066619873047 361.1567077636719 225.0399932861328 C 360.79669189453125 224.17999267578125 360.61669921875 223.23333740234375 360.61669921875 222.1999969482422 C 360.61669921875 221.16000366210938 360.7933654785156 220.2066650390625 361.1466979980469 219.33999633789062 C 361.5000305175781 218.47332763671875 361.9933776855469 217.72999572753906 362.626708984375 217.11000061035156 C 363.2600402832031 216.48333740234375 364.01336669921875 215.99667358398438 364.88671875 215.64999389648438 C 365.7666931152344 215.30999755859375 366.7267150878906 215.13999938964844 367.7666931152344 215.13999938964844 C 368.4200439453125 215.13999938964844 369.0600280761719 215.2100067138672 369.68670654296875 215.35000610351562 C 370.3133850097656 215.49667358398438 370.89337158203125 215.72000122070312 371.42669677734375 216.02000427246094 C 371.96002197265625 216.32000732421875 372.4400329589844 216.6999969482422 372.86669921875 217.16000366210938 C 373.2933654785156 217.6266632080078 373.63336181640625 218.17999267578125 373.88671875 218.82000732421875 ZM 379.489013671875 222.5800018310547 C 379.9756774902344 222.68666076660156 380.4590148925781 222.77333068847656 380.9389953613281 222.83999633789062 C 381.4256896972656 222.89999389648438 381.9156799316406 222.92999267578125 382.40899658203125 222.92999267578125 C 382.9223327636719 222.92999267578125 383.3990173339844 222.8800048828125 383.8390197753906 222.77999877929688 C 384.2856750488281 222.68666076660156 384.66900634765625 222.52333068847656 384.989013671875 222.2899932861328 C 385.315673828125 222.06333923339844 385.5723571777344 221.7566680908203 385.7590026855469 221.3699951171875 C 385.9456787109375 220.99000549316406 386.03900146484375 220.51333618164062 386.03900146484375 219.94000244140625 C 386.03900146484375 219.47999572753906 385.9756774902344 219.05999755859375 385.8489990234375 218.67999267578125 C 385.72900390625 218.2933349609375 385.5456848144531 217.9633331298828 385.29901123046875 217.69000244140625 C 385.0523376464844 217.4166717529297 384.7490234375 217.20333862304688 384.3890075683594 217.0500030517578 C 384.0290222167969 216.89666748046875 383.6090087890625 216.82000732421875 383.1289978027344 216.82000732421875 C 382.6889953613281 216.82000732421875 382.28900146484375 216.90333557128906 381.92901611328125 217.07000732421875 C 381.57568359375 217.23666381835938 381.26568603515625 217.4566650390625 380.9990234375 217.72999572753906 C 380.7256774902344 218.00999450683594 380.4923400878906 218.3333282470703 380.29901123046875 218.6999969482422 C 380.1123352050781 219.06666564941406 379.9556884765625 219.4499969482422 379.8290100097656 219.85000610351562 C 379.70233154296875 220.25 379.6123352050781 220.64999389648438 379.55902099609375 221.0500030517578 C 379.50567626953125 221.4566650390625 379.47900390625 221.83999633789062 379.47900390625 222.1999969482422 C 379.47900390625 222.26666259765625 379.47900390625 222.3300018310547 379.47900390625 222.38999938964844 C 379.47900390625 222.4499969482422 379.4823303222656 222.51333618164062 379.489013671875 222.5800018310547 M 389.2490234375 219.91000366210938 C 389.2490234375 220.4633331298828 389.15899658203125 220.9566650390625 388.97900390625 221.38999938964844 C 388.79901123046875 221.82333374023438 388.5556640625 222.20333862304688 388.2490234375 222.52999877929688 C 387.9423522949219 222.85665893554688 387.5856628417969 223.13333129882812 387.17901611328125 223.36000061035156 C 386.7723388671875 223.586669921875 386.3390197753906 223.77333068847656 385.8789978027344 223.9199981689453 C 385.41900634765625 224.06666564941406 384.9423522949219 224.1699981689453 384.4490051269531 224.22999572753906 C 383.96234130859375 224.2899932861328 383.489013671875 224.32000732421875 383.0290222167969 224.32000732421875 C 382.4423522949219 224.32000732421875 381.8623352050781 224.27999877929688 381.28900146484375 224.1999969482422 C 380.72235107421875 224.1199951171875 380.162353515625 223.99000549316406 379.6090087890625 223.80999755859375 C 379.6956787109375 224.32333374023438 379.83233642578125 224.81333923339844 380.0190124511719 225.27999877929688 C 380.2056884765625 225.74667358398438 380.4556884765625 226.15333557128906 380.7690124511719 226.5 C 381.08233642578125 226.84666442871094 381.4656677246094 227.1199951171875 381.91900634765625 227.32000732421875 C 382.3789978027344 227.52667236328125 382.91900634765625 227.6300048828125 383.53900146484375 227.6300048828125 C 383.9590148925781 227.6300048828125 384.3556823730469 227.56666564941406 384.72900390625 227.44000244140625 C 385.10235595703125 227.31333923339844 385.4456787109375 227.1366729736328 385.7590026855469 226.91000366210938 C 386.0723571777344 226.68333435058594 386.3489990234375 226.4166717529297 386.5890197753906 226.11000061035156 C 386.8223571777344 225.79666137695312 387.01568603515625 225.44667053222656 387.16900634765625 225.05999755859375 L 388.8789978027344 225.6999969482422 C 388.6190185546875 226.31333923339844 388.26568603515625 226.8433380126953 387.8190002441406 227.2899932861328 C 387.36566162109375 227.7433319091797 386.8556823730469 228.11666870117188 386.28900146484375 228.41000366210938 C 385.72235107421875 228.70333862304688 385.1223449707031 228.9199981689453 384.489013671875 229.05999755859375 C 383.8489990234375 229.1999969482422 383.2190246582031 229.27000427246094 382.5989990234375 229.27000427246094 C 381.565673828125 229.27000427246094 380.6123352050781 229.09666442871094 379.739013671875 228.75 C 378.8590087890625 228.40333557128906 378.10235595703125 227.9166717529297 377.4690246582031 227.2899932861328 C 376.84234619140625 226.663330078125 376.3489990234375 225.9166717529297 375.989013671875 225.0500030517578 C 375.6289978027344 224.18333435058594 375.4490051269531 223.23333740234375 375.4490051269531 222.1999969482422 C 375.4490051269531 221.17333984375 375.6289978027344 220.22666931152344 375.989013671875 219.36000061035156 C 376.3489990234375 218.48666381835938 376.84234619140625 217.74000549316406 377.4690246582031 217.1199951171875 C 378.10235595703125 216.4933319091797 378.8590087890625 216.0066680908203 379.739013671875 215.66000366210938 C 380.6123352050781 215.31333923339844 381.565673828125 215.13999938964844 382.5989990234375 215.13999938964844 C 383.0989990234375 215.13999938964844 383.6090087890625 215.17333984375 384.1289978027344 215.24000549316406 C 384.6556701660156 215.31333923339844 385.162353515625 215.42666625976562 385.6490173339844 215.5800018310547 C 386.142333984375 215.72666931152344 386.6090087890625 215.92333984375 387.04901123046875 216.1699981689453 C 387.489013671875 216.41000366210938 387.8690185546875 216.7066650390625 388.1889953613281 217.05999755859375 C 388.51568603515625 217.4199981689453 388.7723388671875 217.8333282470703 388.9590148925781 218.3000030517578 C 389.15234375 218.76666259765625 389.2490234375 219.30332946777344 389.2490234375 219.91000366210938 Z" transform="matrix(2.923917770385742, 0, 0, 2.923917770385742, -649.0437622070312, -462.06243896484375)" style="fill: rgb(0, 0, 0); white-space: pre; color: rgb(51, 51, 51);"/>
</svg>